<svg viewBox="0 0 32 32" xmlns="http://www.w3.org/2000/svg">
  <defs>
    <linearGradient id="gold" x1="0%" y1="0%" x2="100%" y2="100%">
      <stop offset="0%" style="stop-color:#D4AF37"/>
      <stop offset="50%" style="stop-color:#FFD700"/>
      <stop offset="100%" style="stop-color:#B8860B"/>
    </linearGradient>
    <radialGradient id="bg" cx="30%" cy="30%" r="70%">
      <stop offset="0%" style="stop-color:#2a2a2a"/>
      <stop offset="100%" style="stop-color:#0a0a0a"/>
    </radialGradient>
    <clipPath id="clip">
      <circle cx="16" cy="16" r="14.5"/>
    </clipPath>
  </defs>
  <circle cx="16" cy="16" r="14.5" fill="url(#bg)"/>
  <g clip-path="url(#clip)" fill="url(#gold)">
    <!-- North America -->
    <path d="M3 7 L4 6 L6 5 L8 5 L10 6 L12 7 L13 9 L12 11 L14 13 L13 14 L10 15 L8 16 L7 15 L5 13 L4 11 L3 9 L3 7Z"/>
    <!-- South America -->
    <path d="M8 17 L10 17 L11 19 L12 22 L11 25 L10 26 L8 25 L7 22 L7 19 L8 17Z"/>
    <!-- Europe -->
    <path d="M17 7 L19 7 L21 8 L21 10 L20 11 L18 10 L17 9 L17 7Z"/>
    <!-- Africa -->
    <path d="M17 12 L19 11 L22 13 L23 17 L22 21 L20 22 L18 21 L17 17 L17 14 L17 12Z"/>
    <!-- Asia -->
    <path d="M22 6 L25 5 L28 7 L29 10 L28 12 L26 11 L24 9 L22 8 L22 6Z"/>
    <!-- India -->
    <path d="M24 14 L26 14 L27 17 L25 18 L24 16 L24 14Z"/>
    <!-- Australia -->
    <path d="M26 21 L28 21 L29 24 L28 25 L26 24 L26 21Z"/>
  </g>
  <circle cx="16" cy="16" r="15" fill="none" stroke="url(#gold)" stroke-width="0.75" opacity="0.6"/>
</svg>
