<svg viewBox="0 0 32 32" xmlns="http://www.w3.org/2000/svg">
  <defs>
    <linearGradient id="gold" x1="0%" y1="0%" x2="100%" y2="100%">
      <stop offset="0%" style="stop-color:#D4AF37"/>
      <stop offset="50%" style="stop-color:#FFD700"/>
      <stop offset="100%" style="stop-color:#B8860B"/>
    </linearGradient>
  </defs>
  <circle cx="16" cy="16" r="15" fill="#0a0a0a" stroke="#1a1a1a" stroke-width="0.5"/>
  <g stroke="#2a2a2a" stroke-width="0.3" fill="none">
    <ellipse cx="16" cy="16" rx="13" ry="13"/>
    <ellipse cx="16" cy="16" rx="13" ry="6.5"/>
    <ellipse cx="16" cy="16" rx="6.5" ry="13"/>
  </g>
  <path d="M7 10 Q9 9 11 10 Q13 11 12 13 Q10 14 8 13 Q6 11 7 10Z" fill="none" stroke="url(#gold)" stroke-width="1"/>
  <path d="M10 17 Q12 16 12 19 Q11 22 10 21 Q8 19 10 17Z" fill="none" stroke="url(#gold)" stroke-width="1"/>
  <path d="M17 8 Q20 7 21 10 Q20 12 18 11 Q16 10 17 8Z" fill="none" stroke="url(#gold)" stroke-width="1"/>
  <path d="M18 14 Q21 13 22 17 Q21 22 19 21 Q17 18 18 14Z" fill="none" stroke="url(#gold)" stroke-width="1"/>
  <path d="M22 9 Q25 8 26 12 Q25 15 23 14 Q21 12 22 9Z" fill="none" stroke="url(#gold)" stroke-width="1"/>
  <path d="M24 19 Q26 18 26 21 Q25 23 24 22 Q23 20 24 19Z" fill="none" stroke="url(#gold)" stroke-width="1"/>
  <circle cx="16" cy="16" r="15.5" fill="none" stroke="url(#gold)" stroke-width="0.5" opacity="0.5"/>
</svg>
