<svg viewBox="0 0 32 32" xmlns="http://www.w3.org/2000/svg">
  <defs>
    <linearGradient id="gold" x1="0%" y1="0%" x2="100%" y2="100%">
      <stop offset="0%" style="stop-color:#D4AF37"/>
      <stop offset="50%" style="stop-color:#FFD700"/>
      <stop offset="100%" style="stop-color:#B8860B"/>
    </linearGradient>
    <radialGradient id="ocean" cx="30%" cy="30%" r="70%">
      <stop offset="0%" style="stop-color:#1a1a1a"/>
      <stop offset="100%" style="stop-color:#0a0a0a"/>
    </radialGradient>
    <clipPath id="clip">
      <circle cx="16" cy="16" r="15"/>
    </clipPath>
  </defs>
  <circle cx="16" cy="16" r="15" fill="url(#ocean)"/>
  <g clip-path="url(#clip)" fill="url(#gold)">
    <!-- North America (Atlantic view) -->
    <path d="M2 9 C2 8 3 7 4 6 C5 5 6 5 8 5 C10 5 11 5 13 6 C14 6 15 7 16 8 C16 9 15 10 14 11 C14 12 14 13 15 14 C15 15 14 16 13 16 C11 17 9 18 8 18 C7 18 6 17 5 16 C4 15 4 14 3 12 C2 11 2 10 2 9 Z"/>
    <!-- Greenland -->
    <path d="M12 3 C13 3 15 3 16 4 C17 5 17 6 16 6 C15 7 14 7 13 6 C12 5 12 4 12 3 Z"/>
    <!-- Europe -->
    <path d="M17 8 C18 7 19 7 21 8 C22 9 22 10 22 11 C21 12 20 12 19 11 C18 10 17 9 17 8 Z"/>
    <!-- Africa -->
    <path d="M17 13 C18 12 20 13 22 15 C23 17 24 19 23 21 C22 23 21 24 19 24 C18 24 17 23 17 21 C17 19 17 16 17 14 C17 13 17 13 17 13 Z"/>
    <!-- South America -->
    <path d="M9 18 C10 18 11 18 12 20 C13 22 12 25 11 26 C10 27 9 27 8 26 C7 24 7 22 8 20 C8 19 9 18 9 18 Z"/>
    <!-- Middle East -->
    <path d="M22 11 C23 11 24 12 24 13 C24 14 23 15 22 14 C22 13 22 12 22 11 Z"/>
  </g>
  <circle cx="16" cy="16" r="15.5" fill="none" stroke="url(#gold)" stroke-width="0.5" opacity="0.5"/>
</svg>
